<mxfile host="app.diagrams.net" agent="Mozilla/5.0 (Windows NT 10.0; Win64; x64) AppleWebKit/537.36 (KHTML, like Gecko) Chrome/131.0.0.0 Safari/537.36" version="26.0.10">
  <diagram name="Page-1" id="5f0bae14-7c28-e335-631c-24af17079c00">
    <mxGraphModel dx="1434" dy="1588" grid="1" gridSize="10" guides="1" tooltips="1" connect="1" arrows="1" fold="1" page="1" pageScale="1" pageWidth="1100" pageHeight="850" background="none" math="0" shadow="0">
      <root>
        <mxCell id="0" />
        <mxCell id="1" parent="0" />
        <mxCell id="39150e848f15840c-1" value="WebUI" style="verticalAlign=top;align=left;spacingTop=8;spacingLeft=2;spacingRight=12;shape=cube;size=10;direction=south;fontStyle=4;html=1;rounded=0;shadow=0;comic=0;labelBackgroundColor=none;strokeWidth=1;fontFamily=Verdana;fontSize=12" parent="1" vertex="1">
          <mxGeometry x="70" y="-440" width="170" height="480" as="geometry" />
        </mxCell>
        <mxCell id="39150e848f15840c-2" value="Flask app" style="verticalAlign=top;align=left;spacingTop=8;spacingLeft=2;spacingRight=12;shape=cube;size=10;direction=south;fontStyle=4;html=1;rounded=0;shadow=0;comic=0;labelBackgroundColor=none;strokeWidth=1;fontFamily=Verdana;fontSize=12" parent="1" vertex="1">
          <mxGeometry x="310" y="-440" width="350" height="480" as="geometry" />
        </mxCell>
        <mxCell id="39150e848f15840c-3" value="local LLM" style="verticalAlign=top;align=left;spacingTop=8;spacingLeft=2;spacingRight=12;shape=cube;size=10;direction=south;fontStyle=4;html=1;rounded=0;shadow=0;comic=0;labelBackgroundColor=none;strokeWidth=1;fontFamily=Verdana;fontSize=12" parent="1" vertex="1">
          <mxGeometry x="760" y="-120" width="200" height="120" as="geometry" />
        </mxCell>
        <mxCell id="39150e848f15840c-10" value="PDF Reader&lt;div&gt;Module&lt;/div&gt;" style="shape=component;align=left;spacingLeft=36;rounded=0;shadow=0;comic=0;labelBackgroundColor=none;strokeWidth=1;fontFamily=Verdana;fontSize=12;html=1;" parent="1" vertex="1">
          <mxGeometry x="90" y="-395" width="120" height="60" as="geometry" />
        </mxCell>
        <mxCell id="C8AHn7oLujGvq02Ve3YZ-1" value="local embedding model" style="verticalAlign=top;align=left;spacingTop=8;spacingLeft=2;spacingRight=12;shape=cube;size=10;direction=south;fontStyle=4;html=1;rounded=0;shadow=0;comic=0;labelBackgroundColor=none;strokeWidth=1;fontFamily=Verdana;fontSize=12" parent="1" vertex="1">
          <mxGeometry x="760" y="-280" width="200" height="120" as="geometry" />
        </mxCell>
        <mxCell id="39150e848f15840c-4" value="&lt;div style=&quot;color: rgb(214, 214, 221); font-family: Consolas, &amp;quot;Courier New&amp;quot;, monospace; font-size: 14px; line-height: 19px; white-space-collapse: preserve;&quot;&gt;&lt;span style=&quot;color: rgb(227, 148, 220);&quot;&gt;all-MiniLM-L6-v2&lt;/span&gt;&lt;/div&gt;" style="html=1;rounded=0;shadow=0;comic=0;labelBackgroundColor=none;strokeWidth=1;fontFamily=Verdana;fontSize=12;align=center;" parent="1" vertex="1">
          <mxGeometry x="760" y="-220" width="150" height="30" as="geometry" />
        </mxCell>
        <mxCell id="C8AHn7oLujGvq02Ve3YZ-3" value="&lt;div style=&quot;color: rgb(214, 214, 221); font-family: Consolas, &amp;quot;Courier New&amp;quot;, monospace; font-size: 14px; line-height: 19px; white-space-collapse: preserve;&quot;&gt;&lt;span style=&quot;color: rgb(227, 148, 220);&quot;&gt;gemma2:2b&lt;/span&gt;&lt;/div&gt;" style="html=1;rounded=0;shadow=0;comic=0;labelBackgroundColor=none;strokeWidth=1;fontFamily=Verdana;fontSize=12;align=center;" parent="1" vertex="1">
          <mxGeometry x="760" y="-80" width="150" height="30" as="geometry" />
        </mxCell>
        <mxCell id="C8AHn7oLujGvq02Ve3YZ-4" value="&lt;div style=&quot;color: rgb(214, 214, 221); font-family: Consolas, &amp;quot;Courier New&amp;quot;, monospace; font-size: 14px; line-height: 19px; white-space-collapse: preserve;&quot;&gt;&lt;span style=&quot;color: rgb(227, 148, 220);&quot;&gt;deepseekr1:1.5b&lt;/span&gt;&lt;/div&gt;" style="html=1;rounded=0;shadow=0;comic=0;labelBackgroundColor=none;strokeWidth=1;fontFamily=Verdana;fontSize=12;align=center;" parent="1" vertex="1">
          <mxGeometry x="760" y="-40" width="150" height="30" as="geometry" />
        </mxCell>
        <mxCell id="C8AHn7oLujGvq02Ve3YZ-14" value="&lt;div style=&quot;color: rgb(214, 214, 221); font-family: Consolas, &amp;quot;Courier New&amp;quot;, monospace; font-size: 14px; line-height: 19px; white-space-collapse: preserve;&quot;&gt;&lt;span style=&quot;color: rgb(227, 148, 220);&quot;&gt;LangChian&lt;/span&gt;&lt;/div&gt;" style="html=1;rounded=0;shadow=0;comic=0;labelBackgroundColor=none;strokeWidth=1;fontFamily=Verdana;fontSize=12;align=center;" parent="1" vertex="1">
          <mxGeometry x="850" y="220" width="150" height="30" as="geometry" />
        </mxCell>
        <mxCell id="C8AHn7oLujGvq02Ve3YZ-15" value="PDF Viewwer&lt;div&gt;Module&lt;/div&gt;" style="shape=component;align=left;spacingLeft=36;rounded=0;shadow=0;comic=0;labelBackgroundColor=none;strokeWidth=1;fontFamily=Verdana;fontSize=12;html=1;" parent="1" vertex="1">
          <mxGeometry x="90" y="-310" width="120" height="60" as="geometry" />
        </mxCell>
        <mxCell id="C8AHn7oLujGvq02Ve3YZ-16" value="Stens Marker&lt;div&gt;Module&lt;/div&gt;" style="shape=component;align=left;spacingLeft=36;rounded=0;shadow=0;comic=0;labelBackgroundColor=none;strokeWidth=1;fontFamily=Verdana;fontSize=12;html=1;" parent="1" vertex="1">
          <mxGeometry x="90" y="-220" width="120" height="60" as="geometry" />
        </mxCell>
        <mxCell id="C8AHn7oLujGvq02Ve3YZ-17" value="Stens Finder&lt;div&gt;Module&lt;/div&gt;" style="shape=component;align=left;spacingLeft=36;rounded=0;shadow=0;comic=0;labelBackgroundColor=none;strokeWidth=1;fontFamily=Verdana;fontSize=12;html=1;" parent="1" vertex="1">
          <mxGeometry x="90" y="-130" width="120" height="60" as="geometry" />
        </mxCell>
        <mxCell id="C8AHn7oLujGvq02Ve3YZ-18" value="Stens Finder&lt;div&gt;Module&lt;/div&gt;" style="shape=component;align=left;spacingLeft=36;rounded=0;shadow=0;comic=0;labelBackgroundColor=none;strokeWidth=1;fontFamily=Verdana;fontSize=12;html=1;" parent="1" vertex="1">
          <mxGeometry x="90" y="-40" width="120" height="60" as="geometry" />
        </mxCell>
        <mxCell id="C8AHn7oLujGvq02Ve3YZ-19" value="" style="group" parent="1" vertex="1" connectable="0">
          <mxGeometry x="330" y="-395" width="220" height="185" as="geometry" />
        </mxCell>
        <mxCell id="C8AHn7oLujGvq02Ve3YZ-6" value="" style="shape=component;align=left;spacingLeft=36;rounded=0;shadow=0;comic=0;labelBackgroundColor=none;strokeWidth=1;fontFamily=Verdana;fontSize=12;html=1;" parent="C8AHn7oLujGvq02Ve3YZ-19" vertex="1">
          <mxGeometry width="220" height="185" as="geometry" />
        </mxCell>
        <mxCell id="C8AHn7oLujGvq02Ve3YZ-7" value="&lt;div style=&quot;color: rgb(214, 214, 221); font-family: Consolas, &amp;quot;Courier New&amp;quot;, monospace; font-size: 14px; line-height: 19px; white-space-collapse: preserve;&quot;&gt;&lt;span style=&quot;color: rgb(227, 148, 220);&quot;&gt;pdf-reader&lt;/span&gt;&lt;/div&gt;" style="html=1;rounded=0;shadow=0;comic=0;labelBackgroundColor=none;strokeWidth=1;fontFamily=Verdana;fontSize=12;align=center;" parent="C8AHn7oLujGvq02Ve3YZ-19" vertex="1">
          <mxGeometry x="45" y="55.26086956521739" width="150" height="24.130434782608695" as="geometry" />
        </mxCell>
        <mxCell id="C8AHn7oLujGvq02Ve3YZ-8" value="&lt;div style=&quot;color: rgb(214, 214, 221); font-family: Consolas, &amp;quot;Courier New&amp;quot;, monospace; font-size: 14px; line-height: 19px; white-space-collapse: preserve;&quot;&gt;&lt;span style=&quot;color: rgb(227, 148, 220);&quot;&gt;uploader&lt;/span&gt;&lt;/div&gt;" style="html=1;rounded=0;shadow=0;comic=0;labelBackgroundColor=none;strokeWidth=1;fontFamily=Verdana;fontSize=12;align=center;" parent="C8AHn7oLujGvq02Ve3YZ-19" vertex="1">
          <mxGeometry x="45" y="16.08695652173913" width="150" height="24.130434782608695" as="geometry" />
        </mxCell>
        <mxCell id="C8AHn7oLujGvq02Ve3YZ-9" value="&lt;div style=&quot;color: rgb(214, 214, 221); font-family: Consolas, &amp;quot;Courier New&amp;quot;, monospace; font-size: 14px; line-height: 19px; white-space-collapse: preserve;&quot;&gt;&lt;span style=&quot;color: rgb(227, 148, 220);&quot;&gt;embedding&lt;/span&gt;&lt;/div&gt;" style="html=1;rounded=0;shadow=0;comic=0;labelBackgroundColor=none;strokeWidth=1;fontFamily=Verdana;fontSize=12;align=center;" parent="C8AHn7oLujGvq02Ve3YZ-19" vertex="1">
          <mxGeometry x="45" y="96.43478260869566" width="150" height="24.130434782608695" as="geometry" />
        </mxCell>
        <mxCell id="C8AHn7oLujGvq02Ve3YZ-10" value="&lt;div style=&quot;color: rgb(214, 214, 221); font-family: Consolas, &amp;quot;Courier New&amp;quot;, monospace; font-size: 14px; line-height: 19px; white-space-collapse: preserve;&quot;&gt;&lt;span style=&quot;color: rgb(227, 148, 220);&quot;&gt;vector-&amp;gt;faiss&lt;/span&gt;&lt;/div&gt;" style="html=1;rounded=0;shadow=0;comic=0;labelBackgroundColor=none;strokeWidth=1;fontFamily=Verdana;fontSize=12;align=center;" parent="C8AHn7oLujGvq02Ve3YZ-19" vertex="1">
          <mxGeometry x="45" y="138.60869565217394" width="150" height="24.130434782608695" as="geometry" />
        </mxCell>
        <mxCell id="C8AHn7oLujGvq02Ve3YZ-22" value="" style="shape=component;align=left;spacingLeft=36;rounded=0;shadow=0;comic=0;labelBackgroundColor=none;strokeWidth=1;fontFamily=Verdana;fontSize=12;html=1;" parent="1" vertex="1">
          <mxGeometry x="330" y="-149" width="220" height="170" as="geometry" />
        </mxCell>
        <mxCell id="C8AHn7oLujGvq02Ve3YZ-25" value="&lt;div style=&quot;color: rgb(214, 214, 221); font-family: Consolas, &amp;quot;Courier New&amp;quot;, monospace; font-size: 14px; line-height: 19px; white-space-collapse: preserve;&quot;&gt;&lt;span style=&quot;color: rgb(227, 148, 220);&quot;&gt;langchain&lt;/span&gt;&lt;/div&gt;" style="html=1;rounded=0;shadow=0;comic=0;labelBackgroundColor=none;strokeWidth=1;fontFamily=Verdana;fontSize=12;align=center;rotation=-90;" parent="1" vertex="1">
          <mxGeometry x="343.63" y="-96.87" width="83.75" height="30" as="geometry" />
        </mxCell>
        <mxCell id="39150e848f15840c-15" style="edgeStyle=orthogonalEdgeStyle;rounded=0;html=1;labelBackgroundColor=none;startArrow=none;startFill=0;startSize=8;endArrow=open;endFill=0;endSize=16;fontFamily=Verdana;fontSize=12;dashed=1;" parent="1" source="C8AHn7oLujGvq02Ve3YZ-9" target="C8AHn7oLujGvq02Ve3YZ-1" edge="1">
          <mxGeometry relative="1" as="geometry">
            <Array as="points">
              <mxPoint x="700" y="-287" />
              <mxPoint x="700" y="-205" />
            </Array>
            <mxPoint x="150" y="-205.5" as="sourcePoint" />
            <mxPoint x="1000" y="-205" as="targetPoint" />
          </mxGeometry>
        </mxCell>
        <mxCell id="C8AHn7oLujGvq02Ve3YZ-29" style="edgeStyle=orthogonalEdgeStyle;rounded=0;html=1;labelBackgroundColor=none;startArrow=none;startFill=0;startSize=8;endArrow=open;endFill=0;endSize=16;fontFamily=Verdana;fontSize=12;dashed=1;entryX=0;entryY=0.5;entryDx=0;entryDy=0;exitX=1;exitY=0.5;exitDx=0;exitDy=0;" parent="1" target="C8AHn7oLujGvq02Ve3YZ-3" edge="1" source="C8AHn7oLujGvq02Ve3YZ-26">
          <mxGeometry relative="1" as="geometry">
            <Array as="points">
              <mxPoint x="530" y="-55" />
              <mxPoint x="700" y="-55" />
              <mxPoint x="700" y="-65" />
            </Array>
            <mxPoint x="525" y="-55" as="sourcePoint" />
            <mxPoint x="760" y="20" as="targetPoint" />
          </mxGeometry>
        </mxCell>
        <mxCell id="i2lUXPtqXZ84Rkbq3Dct-1" value="local embedding model" style="verticalAlign=top;align=left;spacingTop=8;spacingLeft=2;spacingRight=12;shape=cube;size=10;direction=south;fontStyle=4;html=1;rounded=0;shadow=0;comic=0;labelBackgroundColor=none;strokeWidth=1;fontFamily=Verdana;fontSize=12" vertex="1" parent="1">
          <mxGeometry x="760" y="-425" width="200" height="120" as="geometry" />
        </mxCell>
        <mxCell id="i2lUXPtqXZ84Rkbq3Dct-2" value="&lt;div style=&quot;color: rgb(214, 214, 221); font-family: Consolas, &amp;quot;Courier New&amp;quot;, monospace; font-size: 14px; line-height: 19px; white-space-collapse: preserve;&quot;&gt;&lt;span style=&quot;color: rgb(227, 148, 220);&quot;&gt;MinerU&lt;/span&gt;&lt;/div&gt;" style="html=1;rounded=0;shadow=0;comic=0;labelBackgroundColor=none;strokeWidth=1;fontFamily=Verdana;fontSize=12;align=center;" vertex="1" parent="1">
          <mxGeometry x="760" y="-365" width="150" height="30" as="geometry" />
        </mxCell>
        <mxCell id="i2lUXPtqXZ84Rkbq3Dct-3" style="edgeStyle=orthogonalEdgeStyle;rounded=0;html=1;labelBackgroundColor=none;startArrow=none;startFill=0;startSize=8;endArrow=open;endFill=0;endSize=16;fontFamily=Verdana;fontSize=12;dashed=1;exitX=1;exitY=0.5;exitDx=0;exitDy=0;" edge="1" parent="1" source="C8AHn7oLujGvq02Ve3YZ-7">
          <mxGeometry relative="1" as="geometry">
            <Array as="points">
              <mxPoint x="525" y="-330" />
              <mxPoint x="700" y="-330" />
              <mxPoint x="700" y="-350" />
            </Array>
            <mxPoint x="525" y="-425" as="sourcePoint" />
            <mxPoint x="760" y="-350" as="targetPoint" />
          </mxGeometry>
        </mxCell>
        <mxCell id="C8AHn7oLujGvq02Ve3YZ-11" value="&lt;div style=&quot;color: rgb(214, 214, 221); font-family: Consolas, &amp;quot;Courier New&amp;quot;, monospace; font-size: 14px; line-height: 19px; white-space-collapse: preserve;&quot;&gt;&lt;span style=&quot;color: rgb(227, 148, 220);&quot;&gt;queryer&lt;/span&gt;&lt;/div&gt;" style="html=1;rounded=0;shadow=0;comic=0;labelBackgroundColor=none;strokeWidth=1;fontFamily=Verdana;fontSize=12;align=center;" parent="1" vertex="1">
          <mxGeometry x="410" y="-124" width="120" height="30" as="geometry" />
        </mxCell>
        <mxCell id="i2lUXPtqXZ84Rkbq3Dct-4" value="" style="verticalLabelPosition=bottom;verticalAlign=top;html=1;shape=mxgraph.flowchart.summing_function;" vertex="1" parent="1">
          <mxGeometry x="439.5" y="-69" width="15" height="15" as="geometry" />
        </mxCell>
        <mxCell id="i2lUXPtqXZ84Rkbq3Dct-7" value="" style="line;strokeWidth=1;direction=south;html=1;rotation=90;" vertex="1" parent="1">
          <mxGeometry x="476" y="-88" width="10" height="53" as="geometry" />
        </mxCell>
        <mxCell id="C8AHn7oLujGvq02Ve3YZ-27" value="&lt;div style=&quot;font-family: Consolas, &amp;quot;Courier New&amp;quot;, monospace; font-size: 14px; line-height: 19px; white-space-collapse: preserve; color: rgb(214, 214, 221);&quot;&gt;&lt;font color=&quot;#e394dc&quot;&gt;output&lt;/font&gt;&lt;/div&gt;" style="html=1;rounded=0;shadow=0;comic=0;labelBackgroundColor=none;strokeWidth=1;fontFamily=Verdana;fontSize=12;align=center;" parent="1" vertex="1">
          <mxGeometry x="370" y="-28" width="160" height="30" as="geometry" />
        </mxCell>
        <mxCell id="i2lUXPtqXZ84Rkbq3Dct-8" value="" style="edgeStyle=segmentEdgeStyle;endArrow=classic;html=1;curved=0;rounded=0;endSize=8;startSize=8;exitX=0.308;exitY=0.925;exitDx=0;exitDy=0;exitPerimeter=0;" edge="1" parent="1">
          <mxGeometry width="50" height="50" relative="1" as="geometry">
            <mxPoint x="446.96000000000004" y="-94.24999999999977" as="sourcePoint" />
            <mxPoint x="446.83" y="-29" as="targetPoint" />
          </mxGeometry>
        </mxCell>
        <mxCell id="C8AHn7oLujGvq02Ve3YZ-26" value="&lt;div style=&quot;color: rgb(214, 214, 221); font-family: Consolas, &amp;quot;Courier New&amp;quot;, monospace; font-size: 14px; line-height: 19px; white-space-collapse: preserve;&quot;&gt;&lt;span style=&quot;color: rgb(227, 148, 220);&quot;&gt;LLM&lt;/span&gt;&lt;/div&gt;" style="html=1;rounded=0;shadow=0;comic=0;labelBackgroundColor=none;strokeWidth=1;fontFamily=Verdana;fontSize=12;align=center;" parent="1" vertex="1">
          <mxGeometry x="480" y="-77" width="50" height="30" as="geometry" />
        </mxCell>
        <mxCell id="i2lUXPtqXZ84Rkbq3Dct-9" value="" style="edgeStyle=segmentEdgeStyle;endArrow=classic;html=1;curved=0;rounded=0;endSize=8;startSize=8;exitX=0.5;exitY=1;exitDx=0;exitDy=0;entryX=0.319;entryY=0.072;entryDx=0;entryDy=0;entryPerimeter=0;" edge="1" parent="1" source="C8AHn7oLujGvq02Ve3YZ-10" target="C8AHn7oLujGvq02Ve3YZ-11">
          <mxGeometry width="50" height="50" relative="1" as="geometry">
            <mxPoint x="580" y="-100" as="sourcePoint" />
            <mxPoint x="630" y="-150" as="targetPoint" />
          </mxGeometry>
        </mxCell>
        <mxCell id="i2lUXPtqXZ84Rkbq3Dct-10" value="" style="html=1;shadow=0;dashed=0;align=center;verticalAlign=middle;shape=mxgraph.arrows2.arrow;dy=0.6;dx=40;direction=south;notch=0;rotation=90;fillColor=#B0B0B0;" vertex="1" parent="1">
          <mxGeometry x="290" y="-80" width="20" height="140" as="geometry" />
        </mxCell>
      </root>
    </mxGraphModel>
  </diagram>
</mxfile>
